<svg width="114" height="53" viewBox="0 0 114 53" fill="none" xmlns="http://www.w3.org/2000/svg">
<path d="M52.104 35.24C50.36 35.24 48.8 34.84 47.424 34.04C46.048 33.24 44.968 32.144 44.184 30.752C43.416 29.344 43.032 27.768 43.032 26.024C43.032 24.328 43.424 22.8 44.208 21.44C44.992 20.08 46.08 19.016 47.472 18.248C48.864 17.48 50.432 17.096 52.176 17.096C53.12 17.096 53.968 17.184 54.72 17.36C55.488 17.52 56.112 17.712 56.592 17.936C57.072 18.144 57.4 18.328 57.576 18.488L56.52 20.744C55.528 19.944 54.064 19.544 52.128 19.544C50.848 19.544 49.736 19.824 48.792 20.384C47.848 20.944 47.128 21.704 46.632 22.664C46.136 23.624 45.888 24.696 45.888 25.88C45.888 27.224 46.152 28.424 46.68 29.48C47.224 30.536 47.968 31.36 48.912 31.952C49.872 32.528 50.952 32.816 52.152 32.816C52.904 32.816 53.624 32.728 54.312 32.552C55 32.36 55.584 32.064 56.064 31.664V28.256H52.44V25.784H58.728V32.696C58.152 33.416 57.28 34.024 56.112 34.52C54.96 35 53.624 35.24 52.104 35.24ZM63.4594 35.24C61.9394 35.24 60.8914 34.792 60.3154 33.896C59.7554 33 59.4754 31.752 59.4754 30.152V23.984H62.0674V29.504C62.0674 30.416 62.1154 31.128 62.2114 31.64C62.3234 32.136 62.5314 32.504 62.8354 32.744C63.1554 32.984 63.6274 33.104 64.2514 33.104C64.6994 33.104 65.1314 32.976 65.5474 32.72C65.9634 32.464 66.2994 32.12 66.5554 31.688C66.8274 31.24 66.9634 30.752 66.9634 30.224V23.984H69.5314V35H67.4194L67.1314 33.392C66.7314 34.016 66.2274 34.48 65.6194 34.784C65.0274 35.088 64.3074 35.24 63.4594 35.24ZM71.2753 17.36H73.8433V35H71.2753V17.36ZM75.7772 17.36H78.3452V35H75.7772V17.36ZM80.2551 23.984H82.9431V35H80.2551V23.984ZM81.5751 21.92C81.0791 21.92 80.6631 21.752 80.3271 21.416C79.9911 21.08 79.8231 20.664 79.8231 20.168C79.8231 19.72 79.9911 19.336 80.3271 19.016C80.6631 18.696 81.0791 18.536 81.5751 18.536C82.0551 18.536 82.4631 18.696 82.7991 19.016C83.1351 19.336 83.3031 19.72 83.3031 20.168C83.3031 20.664 83.1351 21.08 82.7991 21.416C82.4791 21.752 82.0711 21.92 81.5751 21.92ZM82.8598 23.984H85.8118L88.1878 28.952L88.9558 30.944L89.7238 28.952L92.0758 23.984H94.9558L89.1718 35H88.6678L82.8598 23.984ZM99.6186 35.24C98.3066 35.24 97.2106 34.984 96.3306 34.472C95.4506 33.944 94.8026 33.248 94.3866 32.384C93.9706 31.504 93.7626 30.544 93.7626 29.504C93.7626 28.336 94.0026 27.312 94.4826 26.432C94.9786 25.552 95.6586 24.88 96.5226 24.416C97.3866 23.936 98.3626 23.696 99.4506 23.696C101.147 23.696 102.403 24.168 103.219 25.112C104.051 26.04 104.467 27.352 104.467 29.048C104.467 29.48 104.443 29.928 104.395 30.392H96.4746C96.6506 31.368 96.9946 32.072 97.5066 32.504C98.0346 32.936 98.7626 33.152 99.6906 33.152C100.459 33.152 101.091 33.088 101.587 32.96C102.083 32.832 102.539 32.656 102.955 32.432L103.747 34.28C103.347 34.536 102.803 34.76 102.115 34.952C101.427 35.144 100.595 35.24 99.6186 35.24ZM101.947 28.592C101.963 27.6 101.747 26.904 101.299 26.504C100.851 26.088 100.211 25.88 99.3786 25.88C97.6986 25.88 96.7306 26.784 96.4746 28.592H101.947ZM105.192 23.984H107.784V26.144C108.04 25.408 108.456 24.816 109.032 24.368C109.608 23.92 110.264 23.696 111 23.696C111.512 23.696 111.864 23.744 112.056 23.84L111.696 26.456C111.552 26.36 111.24 26.312 110.76 26.312C110.008 26.312 109.32 26.552 108.696 27.032C108.088 27.512 107.784 28.28 107.784 29.336V35H105.192V23.984Z" fill="#6C5E5D"/>
<g filter="url(#filter0_d)">
<circle cx="26.3727" cy="25.3727" r="11.3727" fill="white"/>
<path fill-rule="evenodd" clip-rule="evenodd" d="M18.1139 23.135L17.5084 21.0015L18.6391 19.7697L18.3355 17.8638L19.5594 16.2784L20.7872 17.1119L22.3032 18.0379L23.5738 17.3365L25.4194 17.823L26.8317 16.8958L28.6159 17.3661L29.9993 15.6746L30.2523 14.7151C33.22 15.8263 35.486 18.0955 36.6635 20.8593L35.2627 21.0035L35.1021 23.6196L36.1129 27.3307L34.84 28.2578L35.4429 31.8586C34.6789 32.9205 33.7414 33.831 32.6825 34.5597L29.8611 34.9812C29.471 35.0395 28.7969 34.7114 28.5086 34.54L26.9669 34.7704L23.9933 35.858L22.1531 35.4897L21.9471 35.6835C16.821 33.5553 13.9258 27.9151 15.3801 22.398C15.5903 21.6008 15.8806 20.8463 16.2403 20.1406L16.2652 20.1638L15.9044 21.5327L18.1139 23.135ZM23.2917 30.9674L23.46 28.4625L22.0304 26.8797L22.2913 25.6341L20.0122 25.1361L19.1575 22.5359L21.3545 20.6398L26.6023 20.2938L29.2533 22.3496L29.8287 25.417L29.1971 28.0885L27.1975 29.1657L26.0245 31.5877L24.2406 32.6244L23.2917 30.9674Z" fill="#F2762E"/>
</g>
<defs>
<filter id="filter0_d" x="0" y="0" width="52.7455" height="52.7455" filterUnits="userSpaceOnUse" color-interpolation-filters="sRGB">
<feFlood flood-opacity="0" result="BackgroundImageFix"/>
<feColorMatrix in="SourceAlpha" type="matrix" values="0 0 0 0 0 0 0 0 0 0 0 0 0 0 0 0 0 0 127 0" result="hardAlpha"/>
<feOffset dy="1"/>
<feGaussianBlur stdDeviation="7.5"/>
<feColorMatrix type="matrix" values="0 0 0 0 0.0860764 0 0 0 0 0.204594 0 0 0 0 0.279167 0 0 0 0.25 0"/>
<feBlend mode="normal" in2="BackgroundImageFix" result="effect1_dropShadow"/>
<feBlend mode="normal" in="SourceGraphic" in2="effect1_dropShadow" result="shape"/>
</filter>
</defs>
</svg>
