<svg width="157" height="38" viewBox="0 0 157 38" fill="none" xmlns="http://www.w3.org/2000/svg">
<path d="M59.998 33.38C57.2367 33.38 54.7667 32.7467 52.588 31.48C50.4093 30.2133 48.6993 28.478 47.458 26.274C46.242 24.0447 45.634 21.5493 45.634 18.788C45.634 16.1027 46.2547 13.6833 47.496 11.53C48.7373 9.37667 50.46 7.692 52.664 6.476C54.868 5.26 57.3507 4.652 60.112 4.652C61.6067 4.652 62.9493 4.79133 64.14 5.07C65.356 5.32333 66.344 5.62733 67.104 5.982C67.864 6.31133 68.3833 6.60267 68.662 6.856L66.99 10.428C65.4193 9.16133 63.1013 8.528 60.036 8.528C58.0093 8.528 56.2487 8.97133 54.754 9.858C53.2593 10.7447 52.1193 11.948 51.334 13.468C50.5487 14.988 50.156 16.6853 50.156 18.56C50.156 20.688 50.574 22.588 51.41 24.26C52.2713 25.932 53.4493 27.2367 54.944 28.174C56.464 29.086 58.174 29.542 60.074 29.542C61.2647 29.542 62.4047 29.4027 63.494 29.124C64.5833 28.82 65.508 28.3513 66.268 27.718V22.322H60.53V18.408H70.486V29.352C69.574 30.492 68.1933 31.4547 66.344 32.24C64.52 33 62.4047 33.38 59.998 33.38ZM77.9773 33.38C75.5707 33.38 73.9113 32.6707 72.9993 31.252C72.1127 29.8333 71.6693 27.8573 71.6693 25.324V15.558H75.7733V24.298C75.7733 25.742 75.8493 26.8693 76.0013 27.68C76.1787 28.4653 76.508 29.048 76.9893 29.428C77.496 29.808 78.2433 29.998 79.2313 29.998C79.9407 29.998 80.6247 29.7953 81.2833 29.39C81.942 28.9847 82.474 28.44 82.8793 27.756C83.31 27.0467 83.5253 26.274 83.5253 25.438V15.558H87.5913V33H84.2473L83.7913 30.454C83.158 31.442 82.36 32.1767 81.3973 32.658C80.46 33.1393 79.32 33.38 77.9773 33.38ZM90.3526 5.07H94.4186V33H90.3526V5.07ZM97.4805 5.07H101.547V33H97.4805V5.07ZM104.571 15.558H108.827V33H104.571V15.558ZM106.661 12.29C105.875 12.29 105.217 12.024 104.685 11.492C104.153 10.96 103.887 10.3013 103.887 9.516C103.887 8.80667 104.153 8.19867 104.685 7.692C105.217 7.18533 105.875 6.932 106.661 6.932C107.421 6.932 108.067 7.18533 108.599 7.692C109.131 8.19867 109.397 8.80667 109.397 9.516C109.397 10.3013 109.131 10.96 108.599 11.492C108.092 12.024 107.446 12.29 106.661 12.29ZM108.695 15.558H113.369L117.131 23.424L118.347 26.578L119.563 23.424L123.287 15.558H127.847L118.689 33H117.891L108.695 15.558ZM135.229 33.38C133.152 33.38 131.417 32.9747 130.023 32.164C128.63 31.328 127.604 30.226 126.945 28.858C126.287 27.4647 125.957 25.9447 125.957 24.298C125.957 22.4487 126.337 20.8273 127.097 19.434C127.883 18.0407 128.959 16.9767 130.327 16.242C131.695 15.482 133.241 15.102 134.963 15.102C137.649 15.102 139.637 15.8493 140.929 17.344C142.247 18.8133 142.905 20.8907 142.905 23.576C142.905 24.26 142.867 24.9693 142.791 25.704H130.251C130.53 27.2493 131.075 28.364 131.885 29.048C132.721 29.732 133.874 30.074 135.343 30.074C136.559 30.074 137.56 29.9727 138.345 29.77C139.131 29.5673 139.853 29.2887 140.511 28.934L141.765 31.86C141.132 32.2653 140.271 32.62 139.181 32.924C138.092 33.228 136.775 33.38 135.229 33.38ZM138.915 22.854C138.941 21.2833 138.599 20.1813 137.889 19.548C137.18 18.8893 136.167 18.56 134.849 18.56C132.189 18.56 130.657 19.9913 130.251 22.854H138.915ZM144.054 15.558H148.158V18.978C148.563 17.8127 149.222 16.8753 150.134 16.166C151.046 15.4567 152.085 15.102 153.25 15.102C154.061 15.102 154.618 15.178 154.922 15.33L154.352 19.472C154.124 19.32 153.63 19.244 152.87 19.244C151.679 19.244 150.59 19.624 149.602 20.384C148.639 21.144 148.158 22.36 148.158 24.032V33H144.054V15.558Z" fill="white"/>
<circle cx="18.9545" cy="18.9545" r="18.9545" fill="white"/>
<path fill-rule="evenodd" clip-rule="evenodd" d="M5.18979 15.225L4.18061 11.6692L6.0651 9.61629L5.55906 6.43979L7.59896 3.79732L9.6453 5.1866L12.1719 6.72991L14.2895 5.56092L17.3656 6.37177L19.7194 4.82642L22.693 5.61024L24.9988 2.79111L25.4204 1.19187C30.3666 3.0438 34.1432 6.82594 36.1057 11.4322L33.771 11.6726L33.5033 16.0328L35.188 22.2178L33.0666 23.763L34.0714 29.7644C32.7981 31.5342 31.2356 33.0517 29.4708 34.2662L24.7684 34.9688C24.1182 35.066 22.9947 34.5191 22.5142 34.2335L19.9448 34.6174L14.9888 36.4301L11.9218 35.8162L11.5784 36.1392C3.03487 32.5921 -1.79032 23.1918 0.633503 13.9966C0.983692 12.6681 1.46765 11.4105 2.06709 10.2344L2.10864 10.2731L1.50726 12.5546L5.18979 15.225ZM13.8193 28.279L14.0999 24.1043L11.7172 21.4663L12.1521 19.3901L8.35357 18.5602L6.92915 14.2265L10.5908 11.0665L19.337 10.4897L23.7555 13.916L24.7144 19.0284L23.6617 23.4809L20.329 25.2762L18.374 29.3129L15.4009 31.0407L13.8193 28.279Z" fill="#272727"/>
</svg>
